<?xml version="1.0" encoding="utf-8"?>
<!-- Generator: Adobe Illustrator 20.1.0, SVG Export Plug-In . SVG Version: 6.00 Build 0)  -->
<svg version="1.1" id="Layer_1" xmlns="http://www.w3.org/2000/svg" xmlns:xlink="http://www.w3.org/1999/xlink" x="0px" y="0px"
	 viewBox="0 0 185.4 48" style="enable-background:new 0 0 185.4 48;" xml:space="preserve">
<style type="text/css">
	.st0{fill:#050004;}
	.st1{font-family:'Oranienbaum';}
	.st2{font-size:43.6013px;}
	.st3{fill:#EFE51D;}
	.st4{fill:#050505;stroke:#FCFCFC;stroke-width:0.11;stroke-miterlimit:10;}
	.st5{fill:#050505;stroke:#FFFFFF;stroke-width:0.11;stroke-miterlimit:10;}
	.st6{fill:#050505;stroke:#FEFDFF;stroke-width:0.11;stroke-miterlimit:10;}
	.st7{fill:#050505;stroke:#FCFCFC;stroke-width:0.2;stroke-miterlimit:10;}
	.st8{fill:none;}
</style>
<g>
	<text transform="matrix(1.107 -1.304093e-02 1.230000e-02 0.9999 7.7799 37.3378)" class="st0 st1 st2">eлeвeн</text>
	<g>
		<circle class="st3" cx="163.2" cy="25.8" r="21.1"/>
		<g>
			<g>
				<g>
					<g>
						<g>
							<path class="st4" d="M166.4,42c0,0,0.1,0,0.2,0c0.1,0,0.3-0.1,0.3-0.2c0.1-0.1,0.2-0.2,0.3-0.3c0.1-0.3,0.2-0.8,0.3-1.1
								c0.2-0.7,1.4-7.5,1.6-8.2c0.2-0.9,0.6-2.7,0.8-3.6c0.2-0.7,0.5-2.2,0.6-2.9c0.1-0.7,0.5-2.9,0.5-2.9s-0.3-0.1-0.5-0.1
								c-0.1,0-0.5-0.1-0.5-0.1L166.4,42z"/>
							<path class="st4" d="M166.1,41.9c-0.1-0.1-0.1-0.3-0.1-0.5c0-0.3,0.1-0.8,0.1-1.1c0.1-0.7,1.3-7.5,1.4-8.2
								c0.1-0.9,0.3-2.7,0.4-3.7c0.1-0.7,0.3-2.2,0.4-2.9c0.1-0.7,0.5-2.9,0.5-2.9s0.4,0,0.5,0c0.1,0,0.3,0,0.4,0.1
								c0.1,0,0.3,0.1,0.4,0.1c0.2,0,0.5,0.1,0.5,0.1s-0.4,2.2-0.5,3c-0.1,0.7-0.4,2.2-0.6,2.9c-0.2,0.9-0.6,2.7-0.8,3.6
								c-0.2,0.7-1.4,7.5-1.6,8.2c-0.1,0.3-0.2,0.8-0.3,1.1c0,0.1-0.1,0.4-0.3,0.5l0,0c0,0-0.1,0-0.2,0c0,0-0.2,0-0.2,0
								S166.2,42,166.1,41.9z"/>
						</g>
						<polygon class="st4" points="169.6,16.8 168.8,22.6 171,23 172.2,17.2 172.2,17.2 169.6,16.8 						"/>
					</g>
				</g>
				<g>
					<path class="st4" d="M172,10.9c-0.2,0-0.5,0-0.7,0l-0.4,3.6L171,11c-0.4,0.1-0.8,0.3-1.1,0.7l0.1-0.1l0.2,2.3l-0.5-2.1
						c-0.3,0.3-0.4,0.7-0.5,1.2c0,0,0,0.1,0,0.1l0,0v0c0,0.2,0,0.4,0,0.6l0.4,3.1l2.5,0.4l1.4-2.8c0.1-0.2,0.2-0.4,0.2-0.6l0,0l0,0
						c0,0,0-0.1,0-0.1c0.1-0.4,0-0.9-0.1-1.3l-1,1.5l0.9-1.8c-0.2-0.4-0.4-0.7-0.7-0.9l-0.9,2.8l0.7-2.9
						C172.5,11.1,172.2,11,172,10.9z"/>
				</g>
			</g>
			<g>
				<path class="st5" d="M163.2,21.6c0,0,0.5-0.1,0.7-0.1c0.2,0,0.7-0.1,0.7-0.1l1.4,20.6c0,0-0.5,0.1-0.7,0.1c-0.2,0-0.7,0-0.7,0
					L163.2,21.6z"/>
				<path class="st5" d="M163.2,21.6c0,0,0.1-0.1,0.2-0.1c0,0,0.2-0.1,0.2-0.1l1.4,20.7c0,0-0.2,0-0.2,0c-0.1,0-0.2,0-0.2,0
					L163.2,21.6z"/>
				<g>
					<polygon class="st5" points="163.4,21.9 163.6,21.6 163.7,22.1 163.9,21.6 164.1,21.9 164.2,21.6 164.4,22 164.5,21.5 
						164.6,21.8 164.6,21.3 164.4,20.7 163.9,20.5 163.5,20.4 163.2,21.6 					"/>
					<path class="st5" d="M163.8,19.1c-0.1,0.3-0.3,1.3-0.3,1.3s0.1,0.2,0.5,0.3c0.2,0.1,0.4,0,0.4,0s-0.3-1.1-0.5-1.4
						C163.8,19.2,163.8,19.1,163.8,19.1z"/>
				</g>
			</g>
			<g>
				
					<rect x="159.5" y="16" transform="matrix(0.9686 -0.2485 0.2485 0.9686 -0.7435 40.4675)" class="st6" width="0.9" height="14.4"/>
				<path class="st6" d="M160.3,30C160.3,30,160.3,30,160.3,30l1.8-0.5L164,29c0,0,0.1,0.8,0.2,1.1c0.2,1.2,0.7,3.5,1,4.6
					c0.3,1.7,1.2,6.7,1.2,6.7s-0.3,0.2-0.4,0.3c-0.1,0-0.3,0.1-0.5,0.2c-0.2,0.1-0.4,0.1-0.5,0.1c-0.1,0-0.5,0.1-0.5,0.1s0,0,0,0
					c-0.2,0.1-0.5,0.1-0.6,0.1c-0.1,0-0.5,0-0.5,0s-1.7-4.9-2.2-6.5c-0.4-1.1-1-3.4-1.4-4.5c-0.1-0.3-0.4-1-0.4-1L160.3,30z"/>
				<path class="st6" d="M156.2,8.8C156.2,8.8,156.2,8.8,156.2,8.8C156.2,8.8,156.2,8.8,156.2,8.8c0.1,0,0.3,0,0.4,0
					c0.1,0,0.2,0.2,0.2,0.2c0.1,0.1,0.1,0.4,0.2,0.5c0.1,0.2,0.4,0.5,0.5,0.7c0.1,0.1,0.2,0.4,0.2,0.6c0.1,0.2,0.1,0.6,0.1,0.8
					c0,0.1-0.1,0.4-0.1,0.5c0,0.1,0.1,0.3,0.1,0.4c0,0.1,0.1,0.2,0.2,0.2c0.1,0.2,0.3,0.5,0.4,0.7c0.1,0.2,0.2,0.6,0.3,0.8
					c0.1,0.4,0.4,1.6,0.4,1.6l-0.5,0.1l-0.4,0.1l0,0l-0.4,0.1l-0.5,0.1c0,0-0.3-1.2-0.4-1.6c0-0.2-0.1-0.7-0.1-0.9
					c0-0.2,0-0.6,0-0.8c0-0.1,0.1-0.2,0.1-0.3c0-0.1,0-0.4-0.1-0.4c-0.1-0.1-0.3-0.3-0.4-0.4c-0.1-0.2-0.3-0.6-0.4-0.8
					c0-0.1-0.1-0.5-0.1-0.6c0-0.2,0.1-0.6,0.1-0.8c0-0.1-0.1-0.4-0.1-0.5c0-0.1,0-0.3,0.1-0.3C156,8.9,156.2,8.8,156.2,8.8"/>
			</g>
			<g>
				<path class="st4" d="M172.6,42.1l0.3-4.8l-3.4-0.2l-0.3,4.8c0,0.1,0.1,0.2,0.1,0.2l2,0.1c0,0,0,0,0,0l1.1,0.1
					C172.6,42.2,172.6,42.2,172.6,42.1z"/>
				<path class="st4" d="M173,37.1l0-0.2c0-0.1,0-0.2,0-0.2l-0.1,0c0,0,0,0,0,0l-3.2-0.2c-0.1,0-0.2,0.1-0.2,0.1l0,0.2
					c0,0.1,0.1,0.2,0.1,0.2l3.2,0.2c0,0,0,0,0,0l0.1,0C173,37.2,173,37.2,173,37.1z"/>
				<polygon class="st4" points="172.7,36.8 173,31.7 170.1,31.5 169.8,36.6 171.7,36.7 171.7,36.7 				"/>
				<path class="st4" d="M170.4,31.5l0.2-2.1c0,0,0.1-0.3,0.1-0.5c0-0.1,0.1-0.3,0.2-0.4c0-0.1,0.1-0.2,0.1-0.3
					c0-0.1,0.1-0.2,0.2-0.3c0.1-0.1,0.2-0.3,0.2-0.4c0,0,0,0,0.1-0.1c0,0,0,0,0.1,0c0,0,0.1,0,0.1,0c0,0,0.1,0.1,0.2,0.1
					c0.1,0,0.2,0.2,0.3,0.2c0,0,0.1,0.1,0.2,0.2c0,0,0.1,0.1,0.2,0.2c0,0,0.1,0.2,0.1,0.2c0,0.1,0.1,0.2,0.1,0.3
					c0,0.1,0,0.2,0.1,0.3c0,0,0,0.1,0,0.2c0,0.1,0,0.5,0,0.5l0,0.6l-0.1,1.3L170.4,31.5z"/>
				<path class="st4" d="M171.5,27.5C171.6,27.5,171.6,27.5,171.5,27.5c0.1,0,0.2,0.1,0.2,0.1c0.1,0,0.2,0.1,0.3,0.2
					c0,0,0.1,0.1,0.1,0.1c0,0,0.1,0.1,0.1,0.1c0,0,0.1,0.1,0.1,0.1c0,0,0.1,0.1,0.1,0.1c0,0,0.1,0.2,0.1,0.2c0,0,0,0.1,0.1,0.2
					c0,0,0,0.1,0.1,0.2c0,0,0,0.1,0,0.1c0,0,0,0.1-0.1,0.1c0,0-0.1,0.1-0.1,0.1c0,0-0.1,0-0.1,0c0,0-0.1,0-0.1,0c0,0-0.1,0-0.2,0
					c0,0-0.1,0-0.1-0.1c0,0-0.1,0-0.1-0.1c0,0-0.1-0.1-0.1-0.1c0,0-0.1-0.1-0.1-0.1c0,0-0.1-0.1-0.1-0.1c0,0,0-0.1-0.1-0.1
					c0,0-0.1-0.1-0.1-0.2c0,0,0-0.1,0-0.1c0,0,0-0.1,0-0.2c0,0,0-0.1,0-0.1c0,0,0-0.1,0-0.2c0,0,0-0.1,0-0.1c0,0,0-0.1,0-0.1
					C171.4,27.6,171.4,27.5,171.5,27.5C171.5,27.5,171.5,27.5,171.5,27.5z"/>
			</g>
			<path class="st7" d="M153.9,15.5c0.4,0.7,0.9,1.3,1.3,2.1c0.4,0.7,0.8,1.5,1.2,2.3c0.7,1.6,1.4,3.2,2.1,5c1.3,3.4,2.6,7,3.6,10.8
				c0.4,1.3,0.7,2.7,0.9,4c0.2,1.1,0.3,2,0.3,2.9c0,0.1-0.1,0.2-0.2,0.3c0,0.1-0.1,0.2-0.2,0.2c-1.3-0.1-2.7-0.3-4.1-0.4
				c-0.2,0-0.5,0-0.5-0.2c1-0.2,2.2-0.3,3.2-0.5c0,0,0.1,0,0.2-0.1c-0.1-0.1-0.3,0-0.4,0c-1,0.1-2.1,0.2-3.1,0.3
				c0-0.1-0.1-0.2-0.1-0.3c1.1-0.1,2.2-0.4,3.3-0.5c0.1,0,0.1-0.1,0-0.1c-1.1,0.1-2.3,0.2-3.4,0.3c0-0.1-0.1-0.2-0.1-0.3
				c0.2-0.1,0.5-0.2,0.8-0.2c0.8-0.1,2-0.1,2.6-0.3c-1.1,0.1-2.4,0.1-3.5,0.2c0-0.1-0.1-0.2-0.1-0.3c0.2-0.2,0.4-0.1,0.6-0.2
				c0.7-0.1,2.1-0.3,2.7-0.5c-1,0.1-2.5,0.3-3.5,0.4c0-0.1-0.1-0.2-0.1-0.3c0.1-0.1,0.4-0.2,0.6-0.2c0.7-0.1,2.2-0.3,2.8-0.5
				c-0.9,0.1-2.6,0.3-3.5,0.4c0-0.1-0.1-0.2-0.1-0.3c0.1-0.2,0.3-0.2,0.6-0.2c0.7-0.1,2-0.3,2.6-0.5c-0.9,0.1-2.4,0.3-3.3,0.4
				c0-0.1-0.1-0.2-0.1-0.3c0.2-0.2,0.4-0.2,0.8-0.3c0.6-0.1,1.8-0.3,2.3-0.4c-0.9,0.1-2.3,0.3-3.2,0.4c0-0.1-0.1-0.2-0.1-0.3
				c0.1,0,0.1-0.1,0.2-0.1c0.7-0.1,2.3-0.4,2.9-0.6c-0.8,0.1-2.4,0.4-3.2,0.4c0-0.1-0.1-0.2-0.1-0.3c0.1-0.2,0.4-0.2,0.6-0.2
				c0.5-0.1,1.9-0.3,2.3-0.5c-0.8,0.1-2.3,0.3-3.1,0.4c0-0.1-0.1-0.2-0.1-0.3c0.2-0.2,0.5-0.2,0.8-0.3c0.5-0.1,1.7-0.2,2.1-0.4
				c-0.8,0.1-2.2,0.3-3.1,0.4c0-0.1-0.1-0.2-0.1-0.3c0.3-0.2,0.7-0.3,1.1-0.3c0.4-0.1,1.4-0.2,1.8-0.4c-0.8,0.1-2.2,0.3-3,0.4
				c0-0.1-0.1-0.2-0.1-0.3c0.1-0.2,0.3-0.2,0.5-0.2c0.6-0.1,1.8-0.3,2.3-0.5c-0.8,0.1-2.2,0.3-3,0.5c0-0.1-0.1-0.2-0.1-0.3
				c0.1,0,0.2-0.1,0.2-0.2c0.7-0.2,2.1-0.4,2.8-0.6c0,0-2.3,0.4-3.1,0.5c0-0.1-0.1-0.2-0.1-0.3c0.2-0.2,2.6-0.6,3.1-0.8
				c-0.9,0.2-2.3,0.4-3.2,0.5c0-0.1-0.1-0.2-0.1-0.3c0.1,0,0.2-0.1,0.3-0.2c0.7-0.3,2-0.3,2.7-0.6c-0.9,0.2-2.2,0.4-3.1,0.5
				c0-0.1-0.1-0.2-0.1-0.3c0.1-0.1,0.2-0.1,0.2-0.2c0.8-0.2,1.9-0.3,2.7-0.6c-1,0.2-2.1,0.3-3,0.5c0-0.1-0.1-0.2-0.1-0.3
				c0.3-0.2,2.6-0.5,3-0.8c-1,0.2-2,0.3-3.1,0.5c0-0.1-0.1-0.2-0.1-0.3c0.3-0.3,2.6-0.6,3-0.8c-1,0.2-2.1,0.3-3.1,0.5
				c0-0.1-0.1-0.2-0.1-0.3c0.4-0.3,2.7-0.6,3.1-0.9c-1.1,0.2-2.2,0.4-3.2,0.5c0-0.1-0.1-0.2-0.1-0.3c0.2-0.2,0.4-0.2,0.7-0.3
				c0.8-0.2,1.7-0.3,2.4-0.6c-1.1,0.1-2.2,0.4-3.3,0.6c0-0.1-0.1-0.2-0.1-0.3c0.2-0.2,0.5-0.2,0.8-0.3c0.8-0.2,1.7-0.4,2.4-0.6
				c-1.1,0.2-2.2,0.4-3.3,0.6c-0.1-0.1-0.1-0.2-0.1-0.3c0.2-0.2,0.5-0.2,0.8-0.3c0.7-0.2,1.5-0.4,2.2-0.5c0.1,0,0.2,0,0.2-0.1
				c-1.1,0.2-2.2,0.4-3.3,0.6c0-0.1-0.1-0.2-0.1-0.3c0.3-0.2,0.9-0.3,1.4-0.4c0.5-0.1,1.1-0.2,1.6-0.4c0.1,0,0.1,0,0.2-0.1
				c-1.1,0.2-2.2,0.4-3.3,0.6c0-0.1-0.1-0.2-0.1-0.3c0.5-0.3,1.2-0.4,1.9-0.5c0.4-0.1,0.7-0.2,1.1-0.3c0.1,0,0.2,0,0.2-0.1
				c-0.1-0.1-0.2,0-0.3,0c-1,0.2-2,0.5-3,0.6c0-0.1-0.1-0.2-0.1-0.3c0.4-0.2,1-0.3,1.6-0.5c0.5-0.1,1-0.3,1.4-0.4c0,0,0.2,0,0.2-0.1
				c0-0.1-0.1,0-0.2,0c-1.1,0.2-2.1,0.5-3.1,0.7c0-0.1-0.1-0.2-0.1-0.3c0.1-0.1,0.3-0.2,0.5-0.2c0.8-0.2,1.7-0.4,2.4-0.6
				c0.1,0,0.3-0.1,0.3-0.1c0-0.1-0.1,0-0.2,0c-1,0.2-2.1,0.5-3.1,0.7c0-0.1-0.1-0.2-0.1-0.3c0.4-0.2,1-0.3,1.5-0.5
				c0.5-0.1,1-0.2,1.5-0.4c0,0,0.2,0,0.2-0.1c0-0.1-0.1,0-0.1,0c-1,0.2-2.2,0.5-3.1,0.7c0-0.1-0.1-0.2-0.1-0.3
				c0.4-0.2,1-0.3,1.6-0.5c0.4-0.1,0.9-0.2,1.3-0.3c0.1,0,0.4,0,0.3-0.2c0-0.1-0.1,0-0.2,0c-1,0.2-2.1,0.5-3.1,0.7
				c0-0.1-0.1-0.2-0.1-0.3c0.1-0.1,0.2-0.1,0.4-0.2c0.8-0.2,1.8-0.5,2.5-0.7c0.1,0,0.3,0,0.3-0.2c0-0.2-0.3,0-0.4,0
				c-0.9,0.2-2,0.5-2.9,0.7c0-0.1-0.1-0.2-0.1-0.3c0.8-0.3,1.9-0.6,2.8-0.8c0.2,0,0.3-0.1,0.4-0.1c0-0.1-0.1-0.1-0.1-0.1
				c-1.1,0.3-2.2,0.6-3.3,0.8c0-0.1-0.1-0.2-0.1-0.3c1-0.4,2.2-0.6,3.2-1c0,0-0.1-0.1-0.1-0.2c-1.1,0.3-2.2,0.6-3.3,0.8
				c0-0.1-0.1-0.2-0.1-0.3c1-0.4,2.2-0.6,3.2-1c-0.1,0,0-0.2-0.1-0.2c-1.1,0.3-2.2,0.6-3.3,0.9c0-0.1-0.1-0.3-0.1-0.3
				c1-0.4,2.2-0.6,3.2-1c0-0.1,0-0.1,0-0.2c-1.1,0.2-2.2,0.6-3.3,0.9c0-0.1-0.1-0.2-0.1-0.3c1-0.3,2.2-0.7,3.3-1
				c-0.1,0,0-0.2-0.1-0.2c-1.1,0.3-2.2,0.6-3.3,0.9c0-0.1-0.1-0.2-0.1-0.3c1.1-0.4,2.2-0.7,3.3-1c-0.1,0,0-0.2-0.1-0.3
				c-1.1,0.3-2.2,0.6-3.3,0.9c0-0.1-0.1-0.2-0.1-0.3c1.1-0.4,2.2-0.7,3.3-1c0-0.1,0-0.2-0.1-0.3c-1.1,0.3-2.2,0.6-3.3,1
				c0-0.1-0.1-0.2-0.1-0.3c1-0.3,2.2-0.7,3.3-1c0-0.1-0.1-0.2-0.1-0.3c-1.1,0.3-2.2,0.7-3.3,1c-0.1-0.1-0.1-0.2-0.1-0.3
				c1.1-0.3,2.2-0.7,3.3-1c0-0.1,0-0.2-0.1-0.3c-1.1,0.3-2.2,0.7-3.3,1c0-0.1-0.1-0.2-0.1-0.3c1.1-0.4,2.2-0.7,3.3-1.1
				c0-0.1-0.1-0.2-0.1-0.3c-1.1,0.4-2.2,0.7-3.3,1c0-0.1-0.1-0.2-0.1-0.3c1.1-0.4,2.2-0.7,3.3-1.1c0-0.1-0.1-0.2-0.1-0.3
				c-1.1,0.4-2.2,0.7-3.3,1.1c0-0.1-0.1-0.2-0.1-0.3c1.1-0.4,2.3-0.7,3.3-1.1c0-0.1,0-0.3-0.1-0.3c-1,0.3-2.1,0.7-3.2,1
				c0,0-0.1,0.1-0.2,0c-0.1-0.1,0.1-0.2,0.1-0.2c0.1-0.1,0.2-0.1,0.2-0.2c1.1-0.7,2.2-1.5,3.3-2.1C153.5,15.2,153.6,15.4,153.9,15.5
				z"/>
		</g>
	</g>
	<rect class="st8" width="185.4" height="48"/>
</g>
</svg>
